<svg xmlns="http://www.w3.org/2000/svg" viewBox="0 0 100 100" fill="#FFFFFF">
  <!-- Top Left -->
  <path d="M5 5h28c8 0 14 6 14 14v8c0 5-4 9-9 9h-6c-5 0-9 4-9 9v5h-4c-8 0-14-6-14-14V5z"/>
  <!-- Top Right -->
  <path d="M95 5v28c0 8-6 14-14 14h-8c-5 0-9-4-9-9v-6c0-5-4-9-9-9h-5v-4c0-8 6-14 14-14h31z"/>
  <!-- Bottom Right -->
  <path d="M95 95H67c-8 0-14-6-14-14v-8c0-5 4-9 9-9h6c5 0 9-4 9-9v-5h4c8 0 14 6 14 14v31z"/>
  <!-- Bottom Left -->
  <path d="M5 95V67c0-8 6-14 14-14h8c5 0 9 4 9 9v6c0 5 4 9 9 9h5v4c0 8-6 14-14 14H5z"/>
</svg>
