<svg xmlns="http://www.w3.org/2000/svg" viewBox="0 0 100 100">
  <!-- Denlla Isotipo - 4 interlocking curved leaf shapes -->
  <defs>
    <style>
      .leaf { fill: #6B7F4A; }
    </style>
  </defs>

  <!-- Top Left -->
  <path class="leaf" d="
    M 5,5
    L 38,5
    C 45,5 50,10 50,17
    L 50,28
    C 50,33 46,37 41,37
    L 30,37
    C 25,37 21,41 21,46
    L 21,50
    L 17,50
    C 10,50 5,45 5,38
    L 5,5
    Z
  "/>

  <!-- Top Right -->
  <path class="leaf" d="
    M 95,5
    L 95,38
    C 95,45 90,50 83,50
    L 79,50
    L 79,46
    C 79,41 75,37 70,37
    L 59,37
    C 54,37 50,33 50,28
    L 50,17
    C 50,10 55,5 62,5
    L 95,5
    Z
  "/>

  <!-- Bottom Right -->
  <path class="leaf" d="
    M 95,95
    L 62,95
    C 55,95 50,90 50,83
    L 50,72
    C 50,67 54,63 59,63
    L 70,63
    C 75,63 79,59 79,54
    L 79,50
    L 83,50
    C 90,50 95,55 95,62
    L 95,95
    Z
  "/>

  <!-- Bottom Left -->
  <path class="leaf" d="
    M 5,95
    L 5,62
    C 5,55 10,50 17,50
    L 21,50
    L 21,54
    C 21,59 25,63 30,63
    L 41,63
    C 46,63 50,67 50,72
    L 50,83
    C 50,90 45,95 38,95
    L 5,95
    Z
  "/>
</svg>
